<svg xmlns="http://www.w3.org/2000/svg" viewBox="0 0 46.05 50.27"><defs><style>.cls-1{opacity:0.53;}.cls-2{fill:#add3ea;}</style></defs><title>Asset 1</title><g id="Layer_2" data-name="Layer 2"><g id="Layer_1-2" data-name="Layer 1"><g class="cls-1"><path class="cls-2" d="M20.21,2.36a1.15,1.15,0,1,0-1.15-1.15A1.14,1.14,0,0,0,20.21,2.36Z"/><path class="cls-2" d="M20.21,10.34A1.15,1.15,0,1,0,19.06,9.2,1.14,1.14,0,0,0,20.21,10.34Z"/><path class="cls-2" d="M20.21,18.33a1.15,1.15,0,1,0-1.15-1.15A1.15,1.15,0,0,0,20.21,18.33Z"/><path class="cls-2" d="M20.21,26.31a1.15,1.15,0,1,0-1.15-1.14A1.14,1.14,0,0,0,20.21,26.31Z"/><path class="cls-2" d="M20.21,34.3a1.15,1.15,0,1,0-1.15-1.15A1.14,1.14,0,0,0,20.21,34.3Z"/><path class="cls-2" d="M20.21,42.28a1.15,1.15,0,1,0-1.15-1.14A1.14,1.14,0,0,0,20.21,42.28Z"/><path class="cls-2" d="M20.21,50.27a1.15,1.15,0,1,0-1.15-1.15A1.15,1.15,0,0,0,20.21,50.27Z"/><path class="cls-2" d="M13.85,2.36a1.15,1.15,0,1,0-1.14-1.15A1.14,1.14,0,0,0,13.85,2.36Z"/><path class="cls-2" d="M13.85,10.34A1.15,1.15,0,1,0,12.71,9.2,1.14,1.14,0,0,0,13.85,10.34Z"/><path class="cls-2" d="M13.85,18.33a1.15,1.15,0,1,0-1.14-1.15A1.15,1.15,0,0,0,13.85,18.33Z"/><path class="cls-2" d="M13.85,26.31a1.15,1.15,0,1,0-1.14-1.14A1.14,1.14,0,0,0,13.85,26.31Z"/><path class="cls-2" d="M13.85,34.3a1.15,1.15,0,1,0-1.14-1.15A1.14,1.14,0,0,0,13.85,34.3Z"/><path class="cls-2" d="M13.85,42.28a1.15,1.15,0,1,0-1.14-1.14A1.14,1.14,0,0,0,13.85,42.28Z"/><path class="cls-2" d="M13.85,50.27a1.15,1.15,0,1,0-1.14-1.15A1.15,1.15,0,0,0,13.85,50.27Z"/><path class="cls-2" d="M7.5,2.36A1.15,1.15,0,1,0,6.35,1.21,1.14,1.14,0,0,0,7.5,2.36Z"/><path class="cls-2" d="M7.5,10.34a1.15,1.15,0,0,0,0-2.29,1.15,1.15,0,1,0,0,2.29Z"/><path class="cls-2" d="M7.5,18.33a1.15,1.15,0,1,0-1.15-1.15A1.15,1.15,0,0,0,7.5,18.33Z"/><path class="cls-2" d="M7.5,26.31A1.15,1.15,0,0,0,7.5,24a1.15,1.15,0,1,0,0,2.29Z"/><path class="cls-2" d="M7.5,34.3a1.15,1.15,0,1,0-1.15-1.15A1.14,1.14,0,0,0,7.5,34.3Z"/><path class="cls-2" d="M7.5,42.28a1.15,1.15,0,1,0-1.15-1.14A1.14,1.14,0,0,0,7.5,42.28Z"/><path class="cls-2" d="M7.5,50.27a1.15,1.15,0,1,0-1.15-1.15A1.15,1.15,0,0,0,7.5,50.27Z"/><path class="cls-2" d="M1.15,2.36A1.15,1.15,0,1,0,0,1.21,1.14,1.14,0,0,0,1.15,2.36Z"/><path class="cls-2" d="M1.15,10.34A1.15,1.15,0,1,0,0,9.2,1.14,1.14,0,0,0,1.15,10.34Z"/><path class="cls-2" d="M1.15,18.33A1.15,1.15,0,1,0,0,17.18,1.15,1.15,0,0,0,1.15,18.33Z"/><path class="cls-2" d="M1.15,26.31A1.15,1.15,0,1,0,0,25.17,1.14,1.14,0,0,0,1.15,26.31Z"/><path class="cls-2" d="M1.15,34.3A1.15,1.15,0,1,0,0,33.15,1.14,1.14,0,0,0,1.15,34.3Z"/><circle class="cls-2" cx="1.15" cy="41.14" r="1.15"/><path class="cls-2" d="M1.15,50.27A1.15,1.15,0,1,0,0,49.12,1.15,1.15,0,0,0,1.15,50.27Z"/></g><g class="cls-1"><path class="cls-2" d="M44.9,2.29a1.15,1.15,0,1,0-1.14-1.15A1.15,1.15,0,0,0,44.9,2.29Z"/><path class="cls-2" d="M44.9,10.27a1.15,1.15,0,1,0-1.14-1.14A1.15,1.15,0,0,0,44.9,10.27Z"/><path class="cls-2" d="M44.9,18.26a1.15,1.15,0,1,0-1.14-1.14A1.15,1.15,0,0,0,44.9,18.26Z"/><path class="cls-2" d="M44.9,26.25a1.15,1.15,0,1,0-1.14-1.15A1.16,1.16,0,0,0,44.9,26.25Z"/><path class="cls-2" d="M44.9,34.23a1.15,1.15,0,1,0-1.14-1.15A1.15,1.15,0,0,0,44.9,34.23Z"/><path class="cls-2" d="M44.9,42.21a1.15,1.15,0,1,0-1.14-1.14A1.15,1.15,0,0,0,44.9,42.21Z"/><path class="cls-2" d="M44.9,50.2a1.15,1.15,0,1,0-1.14-1.15A1.15,1.15,0,0,0,44.9,50.2Z"/><path class="cls-2" d="M38.55,2.29A1.15,1.15,0,1,0,37.4,1.14,1.14,1.14,0,0,0,38.55,2.29Z"/><path class="cls-2" d="M38.55,10.27a1.15,1.15,0,0,0,0-2.29,1.15,1.15,0,1,0,0,2.29Z"/><path class="cls-2" d="M38.55,18.26a1.15,1.15,0,1,0-1.15-1.14A1.14,1.14,0,0,0,38.55,18.26Z"/><path class="cls-2" d="M38.55,26.25A1.15,1.15,0,1,0,37.4,25.1,1.15,1.15,0,0,0,38.55,26.25Z"/><path class="cls-2" d="M38.55,34.23a1.15,1.15,0,1,0-1.15-1.15A1.14,1.14,0,0,0,38.55,34.23Z"/><path class="cls-2" d="M38.55,42.21a1.15,1.15,0,0,0,0-2.29,1.15,1.15,0,1,0,0,2.29Z"/><path class="cls-2" d="M38.55,50.2a1.15,1.15,0,1,0-1.15-1.15A1.14,1.14,0,0,0,38.55,50.2Z"/><path class="cls-2" d="M32.2,2.29a1.15,1.15,0,1,0-1.15-1.15A1.14,1.14,0,0,0,32.2,2.29Z"/><path class="cls-2" d="M32.2,10.27a1.15,1.15,0,1,0-1.15-1.14A1.14,1.14,0,0,0,32.2,10.27Z"/><path class="cls-2" d="M32.2,18.26a1.15,1.15,0,1,0-1.15-1.14A1.14,1.14,0,0,0,32.2,18.26Z"/><path class="cls-2" d="M32.2,26.25a1.15,1.15,0,1,0-1.15-1.15A1.15,1.15,0,0,0,32.2,26.25Z"/><path class="cls-2" d="M32.2,34.23a1.15,1.15,0,1,0-1.15-1.15A1.14,1.14,0,0,0,32.2,34.23Z"/><path class="cls-2" d="M32.2,42.21a1.15,1.15,0,1,0-1.15-1.14A1.14,1.14,0,0,0,32.2,42.21Z"/><path class="cls-2" d="M32.2,50.2a1.15,1.15,0,1,0-1.15-1.15A1.14,1.14,0,0,0,32.2,50.2Z"/><path class="cls-2" d="M25.84,2.29A1.15,1.15,0,1,0,24.7,1.14,1.15,1.15,0,0,0,25.84,2.29Z"/><path class="cls-2" d="M25.84,10.27A1.15,1.15,0,1,0,24.7,9.13,1.15,1.15,0,0,0,25.84,10.27Z"/><path class="cls-2" d="M25.84,18.26a1.15,1.15,0,1,0-1.14-1.14A1.15,1.15,0,0,0,25.84,18.26Z"/><path class="cls-2" d="M25.84,26.25A1.15,1.15,0,1,0,24.7,25.1,1.16,1.16,0,0,0,25.84,26.25Z"/><path class="cls-2" d="M25.84,34.23a1.15,1.15,0,1,0-1.14-1.15A1.15,1.15,0,0,0,25.84,34.23Z"/><circle class="cls-2" cx="25.84" cy="41.07" r="1.15"/><path class="cls-2" d="M25.84,50.2a1.15,1.15,0,1,0-1.14-1.15A1.15,1.15,0,0,0,25.84,50.2Z"/></g></g></g></svg>