<svg id="flat" height="512" viewBox="0 0 512 512" width="512" xmlns="http://www.w3.org/2000/svg"><path d="m80 40a16 16 0 0 1 16-16h376a16 16 0 0 1 16 16v264a16 16 0 0 1 -16 16h-392z" fill="#548aff"/><g fill="#c5dafa"><path d="m144 176h40v16h-40z"/><path d="m360 64h64v16h-64z"/><path d="m281.566 91.579h66.012v16h-66.012z" transform="matrix(.805 -.593 .593 .805 2.254 206.017)"/><path d="m204.284 148h67.431v16h-67.431z" transform="matrix(.805 -.593 .593 .805 -46.142 171.593)"/><path d="m440 64h16v16h-16z"/><path d="m112 176h16v16h-16z"/></g><path d="m424 456 48-104h-120l-48 104z" fill="#8be0e8"/><path d="m240 456h184v16a16 16 0 0 1 -16 16h-152a16 16 0 0 1 -16-16z" fill="#548aff"/><path d="m64 280h55.03v72h-55.03z" fill="#ffceb6"/><path d="m119.03 280v56a32.72019 32.72019 0 0 1 -23.31-9.66016l-11.03-11.02978a16.00211 16.00211 0 0 1 -4.69-11.31006v-24z" fill="#ffbfa1"/><path d="m136 240v63.02947a16.97054 16.97054 0 0 1 -16.97055 16.97053 16.97054 16.97054 0 0 1 -12-4.97056l-11.02945-11.02944v-64z" fill="#ffceb6"/><path d="m64 304-18.64337-31.07228a37.58857 37.58857 0 0 1 -5.35663-19.33914v-.00005a37.58853 37.58853 0 0 1 37.58853-37.58853h58.41147a16 16 0 0 1 16 16 16 16 0 0 1 -16 16h-24l-16 24v32z" fill="#c47220"/><path d="m272 472h-65.7484a32 32 0 0 1 -23.78542-10.59313l-30.46618-33.8513v68.44443h-128v-112a48 48 0 0 1 48-48h53.46277a56 56 0 0 1 43.34161 20.53868l55.19562 67.46132h48z" fill="#ffb401"/><path d="m272 472v-48h16l32-8 35.65057 21.39034a8.95861 8.95861 0 0 1 4.34943 7.68193 8.95859 8.95859 0 0 1 -10.71551 8.78462l-29.28449-5.85689-27.73333 20.8a16 16 0 0 1 -9.6 3.2z" fill="#ffceb6"/><path d="m408 488h-56a16 16 0 0 1 -16-16v-16h88v16a16 16 0 0 1 -16 16z" fill="#4367e0"/><path d="m192 248h48v40h-48z" fill="#ffa100"/><path d="m240 216h48v72h-48z" fill="#ffb401"/><path d="m288 176h48v112h-48z" fill="#ffc431"/><path d="m336 136h48v152h-48z" fill="#ffcc4d"/><path d="m384 104h48v184h-48z" fill="#ffd873"/><path d="m168 280h288v16h-288z" fill="#7dafff"/><circle cx="200" cy="184" fill="#c5dafa" r="16"/><path d="m200 208a24 24 0 1 1 24-24 24.02718 24.02718 0 0 1 -24 24zm0-32a8 8 0 1 0 8 8 8.00917 8.00917 0 0 0 -8-8z" fill="#e0edff"/><circle cx="280" cy="128" fill="#c5dafa" r="16"/><path d="m280 152a24 24 0 1 1 24-24 24.02718 24.02718 0 0 1 -24 24zm0-32a8 8 0 1 0 8 8 8.00917 8.00917 0 0 0 -8-8z" fill="#e0edff"/><circle cx="352" cy="72" fill="#c5dafa" r="16"/><path d="m352 96a24 24 0 1 1 24-24 24.02718 24.02718 0 0 1 -24 24zm0-32a8 8 0 1 0 8 8 8.00917 8.00917 0 0 0 -8-8z" fill="#e0edff"/><circle cx="104" cy="48" fill="#f5714f" r="8"/><circle cx="128" cy="48" fill="#ffc431" r="8"/><circle cx="152" cy="48" fill="#3cde8d" r="8"/><rect fill="#ffa100" height="47.835" rx="8" transform="matrix(.743 -.669 .669 .743 -239.215 196.171)" width="16" x="128" y="385.86"/></svg>