<svg id="flat" height="512" viewBox="0 0 512 512" width="512" xmlns="http://www.w3.org/2000/svg"><path d="m191.995 143.995h240.002v200.005h-240.002z" fill="#5771e5"/><path d="m135.993 487.995v-192h112.004v80h63.998.005 63.997v-80h112v192z" fill="#89a8f5"/><path d="m216 72h192.001v72h-192.001z" fill="#4356e6"/><path d="m247.997 103.995h128v40h-128z" fill="#96cffa"/><path d="m248 376h16v112h-16z" fill="#6e8beb"/><path d="m375.997 295.995h112v32h-112z" fill="#a2c1fa"/><path d="m360 376h16v112h-16z" fill="#6e8beb"/><path d="m407.997 359.995h48v96h-48z" fill="#96cffa"/><path d="m319.996 175.994h16v16h-16z" fill="#89a8f5"/><path d="m351.996 175.994h16v16h-16z" fill="#89a8f5"/><path d="m383.996 175.994h16v16h-16z" fill="#89a8f5"/><path d="m319.996 207.994h16v16h-16z" fill="#89a8f5"/><path d="m351.996 207.994h16v16h-16z" fill="#89a8f5"/><path d="m383.996 207.994h16v16h-16z" fill="#89a8f5"/><path d="m319.996 239.994h16v16h-16z" fill="#89a8f5"/><path d="m351.996 239.994h16v16h-16z" fill="#89a8f5"/><path d="m335.996 303.994h16v16h-16z" fill="#89a8f5"/><path d="m383.996 239.994h16v16h-16z" fill="#89a8f5"/><path d="m303.996 103.994h16v40h-16z" fill="#7ab8f5"/><path d="m335.996 103.994h16v40h-16z" fill="#7ab8f5"/><path d="m247.997 343.995h128v32h-128z" fill="#6e8beb"/><path d="m279.998 407.997h64.002v80h-64.002z" fill="#96cffa"/><g fill="#89a8f5"><path d="m287.998 175.994h16v16h-16z"/><path d="m255.997 175.994h16v16h-16z"/><path d="m223.996 175.994h16v16h-16z"/><path d="m287.998 207.994h16v16h-16z"/><path d="m255.997 207.994h16v16h-16z"/><path d="m223.996 207.994h16v16h-16z"/><path d="m287.998 239.994h16v16h-16z"/><path d="m255.997 239.994h16v16h-16z"/><path d="m303.998 303.994h16.001v16h-16.001z"/><path d="m271.997 303.994h16.001v16h-16.001z"/><path d="m223.996 239.994h16v16h-16z"/></g><path d="m303.999 103.994h16v40h-16z" fill="#7ab8f5"/><path d="m271.998 103.994h16v40h-16z" fill="#7ab8f5"/><path d="m239.996 47.995h144.002v24.003h-144.002z" fill="#5771e5"/><path d="m263.997 47.995 8-24h80l8.003 24.005z" fill="#89a8f5"/><path d="m335.999 271.994h16.001v16h-16.001z" fill="#89a8f5"/><path d="m303.998 271.994h16.001v16h-16.001z" fill="#89a8f5"/><path d="m271.997 271.994h16.001v16h-16.001z" fill="#89a8f5"/><path d="m303.998 408h16v79.994h-16z" fill="#7ab8f5"/><path d="m239.99652 488 .00359-38.42909a47.98094 47.98094 0 0 0 23.99641-41.57638v-80a40 40 0 0 0 -40-40h-160a40 40 0 0 0 -40 40v55.16719a48.80973 48.80973 0 0 0 24.00348 42.05828l-.00348 62.78z" fill="#ed6445"/><path d="m159.99652 407.99453h48v-16a24 24 0 0 0 -24-24h-23.99652z" fill="#ffceb6"/><path d="m215.99609 407.99414h-16v-64a8 8 0 0 1 8-8 8 8 0 0 1 8 8z" fill="#de402f"/><path d="m151.997 327.995 8 40h-32l8-40z" fill="#f7c04a"/><path d="m151.997 327.995h-16l-8-16 15.999-16 16.001 16z" fill="#f5a431"/><path d="m239.65731 448.97889a7.99175 7.99175 0 0 0 -9.70244-3.49022 40.11159 40.11159 0 0 1 -13.95878 2.50547h-56.73339a134.41778 134.41778 0 0 1 -59.1626-13.67871l54.53257-16.36043a7.99956 7.99956 0 0 0 5.36339-9.961 7.99955 7.99955 0 0 0 -9.96081-5.36334l-65.47177 19.6418a40.9163 40.9163 0 0 1 -26.50814-1.03484 7.96661 7.96661 0 0 0 -9.71324 3.404 7.97607 7.97607 0 0 0 3.894 11.49963 56.91328 56.91328 0 0 0 20.593 3.85286c1.51636 0 3.02881-.06641 4.53589-.18652a150.3861 150.3861 0 0 0 81.89771 24.18652h56.73339a56.13107 56.13107 0 0 0 19.42941-3.46987 8.02753 8.02753 0 0 0 4.23181-11.54537z" fill="#de402f"/><path d="m164.6817 327.994-20.68561-20.68637-20.6856 20.68637a8.00044 8.00044 0 0 1 -11.31444.0001 8.00043 8.00043 0 0 1 0-11.31433l26.34283-26.34284a8.003 8.003 0 0 1 11.31445 0l26.34283 26.34284a8.00043 8.00043 0 0 1 0 11.31433 8.00044 8.00044 0 0 1 -11.31446-.0001z" fill="#de402f"/><path d="m175.99652 263.9946a32 32 0 0 1 -32 32h-.00007a32 32 0 0 1 -32-32v-24l16.00355-23.9946h48z" fill="#ffceb6"/><path d="m135.99652 223.99457a28.94425 28.94425 0 0 0 25.88852 16 30.11143 30.11143 0 0 0 30.11143-30.11143v-17.88857h-55.97541a30.77006 30.77006 0 0 0 -29.85135 23.30723 30.77007 30.77007 0 0 0 .66029 17.1932l5.16652 15.49955z" fill="#b36f42"/><path d="m152 375.99414h-72.00391a8 8 0 0 1 -8-8v-24a8 8 0 0 1 8-8 8 8 0 0 1 8 8v16h64.00391a8 8 0 0 1 8 8 8 8 0 0 1 -8 8z" fill="#de402f"/></svg>