<svg width="20" height="22" viewBox="-5 -2 40 40" fill="none" xmlns="http://www.w3.org/2000/svg">
  <path id="Icon_feather-github" data-name="Icon feather-github" d="M13.5,28.5C6,30.75,6,24.75,3,24m21,9V27.195a5.055,5.055,0,0,0-1.41-3.915c4.71-.525,9.66-2.31,9.66-10.5A8.159,8.159,0,0,0,30,7.156,7.6,7.6,0,0,0,29.865,1.5S28.095.975,24,3.72a20.07,20.07,0,0,0-10.5,0C9.4.975,7.635,1.5,7.635,1.5A7.6,7.6,0,0,0,7.5,7.155a8.16,8.16,0,0,0-2.25,5.67c0,8.13,4.95,9.915,9.66,10.5A5.055,5.055,0,0,0,13.5,27.2V33" transform="translate(-1.181 0.117)" fill="none" stroke="#60a5fa" stroke-linecap="round" stroke-linejoin="round" stroke-width="3"/>
</svg>

