<svg id="flat" height="512" viewBox="0 0 512 512" width="512" xmlns="http://www.w3.org/2000/svg"><path d="m336 272h16a0 0 0 0 1 0 0v16a48 48 0 0 1 -48 48h-16a0 0 0 0 1 0 0v-16a48 48 0 0 1 48-48z" fill="#51a37e"/><path d="m168 136h16a48 48 0 0 1 48 48v16a0 0 0 0 1 0 0h-16a48 48 0 0 1 -48-48v-16a0 0 0 0 1 0 0z" fill="#51a37e" transform="matrix(-1 0 0 -1 400 336)"/><path d="m456 224v56h-56v-40l-16 8-10.4502 5.23a26.2955 26.2955 0 0 1 -36.15966-13.75l-15.79004-39.48h22.3999l24 24 3-2 12.93994-8.62988a32.00826 32.00826 0 0 1 17.75-5.37012h38.31006a15.99564 15.99564 0 0 1 16 16z" fill="#ffbfa1"/><path d="m456 224v56h-56v-40l-16 8-13-26 12.93994-8.62988a32.00826 32.00826 0 0 1 17.75-5.37012h38.31006a15.99564 15.99564 0 0 1 16 16z" fill="#5771e5"/><path d="m424 208h22.05891a33.94109 33.94109 0 0 1 33.94109 33.94109 33.9411 33.9411 0 0 1 -9.94112 24l-6.05888 6.05891h-40z" fill="#5771e5"/><circle cx="448" cy="160" fill="#9e593c" r="24"/><path d="m448 184v-16a16 16 0 0 0 -16-16 16 16 0 0 0 -16 16v16z" fill="#b36f42"/><path d="m320 392-4 24-2.67 16-9.33 56h-92l-16-96z" fill="#b36f42"/><path d="m316 416-2.67 16h-41.33v-16z" fill="#9e593c"/><path d="m240 416h16v16h-16z" fill="#9e593c"/><path d="m322.343 290.343-58.343 58.343v-65.372l80.485-80.485-11.314-11.314-69.171 69.171v-132.686h-16v76.686l-50.343-50.343-11.314 11.314 61.657 61.657v89.372l-37.692-37.693-11.315 11.315 49.007 49.006v52.686h16v-20.686l69.657-69.657z" fill="#5ebd92"/><path d="m440 168a27.31368 27.31368 0 0 1 -19.31369 8h-4.68631v16a16 16 0 0 0 16 16 16 16 0 0 0 16-16v-16z" fill="#ffceb6"/><rect fill="#4356e6" height="16.001" rx="8.001" transform="matrix(.707 -.707 .707 .707 -37.678 387.414)" width="24.921" x="436.35" y="231.188"/><path d="m456 456-24 24v8h56v-24z" fill="#e4e9f2"/><path d="m400 456-24 24v8h56v-24z" fill="#cad8ed"/><path d="m440 368-1.4 16.75-1.58 19.05-5.02 60.2-32-8v-88z" fill="#ffceb6"/><path d="m456 456 32 8-24-96h-40z" fill="#ffceb6"/><circle cx="256" cy="80" fill="#f7c04a" r="56"/><path d="m248.98438 68h31.01562v-16h-16v-12h-16v12.0498a16.97219 16.97219 0 0 0 -3.13477 33.41211l18.38868 4.59766a.98491.98491 0 0 1 -.23829 1.94043h-31.01562v16h16v12h16v-12.0498a16.97219 16.97219 0 0 0 3.13477-33.41211l-18.38868-4.59766a.98491.98491 0 0 1 .23829-1.94043z" fill="#f5a431"/><path d="m456 272v8a59.94644 59.94644 0 0 1 15.76806 56.92768l-7.76806 31.07232h-64v-96z" fill="#e6b47c"/><path d="m441.80137 393.54014a8.00429 8.00429 0 0 1 -4.78084 10.25972l-.00051.00019a8.0043 8.0043 0 0 1 -10.25383-4.78864l-11.27596-31.01141h17.01954l6.09033 16.75z" fill="#ffbfa1"/><circle cx="352" cy="184" fill="#f7c04a" r="40"/><path d="m440 248 24 24-13.526 13.526a35.7606 35.7606 0 0 1 -25.28653 10.474 35.76062 35.76062 0 0 1 -27.92435-13.42113l-44.317-55.39629a16 16 0 0 1 1.18019-21.30883l9.87369-9.87375 12 12 2.34315-2.34315a8 8 0 0 1 11.3137 0 8 8 0 0 1 2.34315 5.65686v12.68629l32 40z" fill="#ffceb6"/><path d="m88 160h24v32h-24z" fill="#ffbfa1"/><path d="m200 240v8h-40l-24-24-16 72h-80v-75.03a36.96745 36.96745 0 0 1 36.97-36.97h53.78a31.99565 31.99565 0 0 1 22.62012 9.37012z" fill="#ed6445"/><circle cx="184" cy="272" fill="#f7c04a" r="40"/><path d="m96 184h16v64h-16z" fill="#de402f"/><path d="m120 152 7.80065-3.90032a14.8328 14.8328 0 0 0 8.19935-13.26686v-14.83282h-36.58361a19.41638 19.41638 0 0 0 -19.41639 19.41639 19.41651 19.41651 0 0 0 2.04984 8.68328l5.95016 11.90033h24z" fill="#b36f42"/><path d="m88 152 8-8a17.88853 17.88853 0 0 0 24 8v16a16 16 0 0 1 -16 16 16 16 0 0 1 -16-16z" fill="#ffceb6"/><path d="m160 456 24 16v16h-56v-16z" fill="#6d7eb3"/><path d="m56 456 28.62167-57.24334a32 32 0 0 0 3.37833-14.31084v-48.44582l32 64 8 72 32-16v-57.6a31.9999 31.9999 0 0 0 -2.46154-12.30769l-37.53846-90.09231h-80v32l8 56-24 88z" fill="#445496"/><path d="m24 472v16h56v-16l-24-16z" fill="#6d7eb3"/><path d="m72.55814 263.25581 21.52186-28.69581 17.92 13.44h24l14.34315-14.34315a5.65684 5.65684 0 0 1 4-1.65685 5.65685 5.65685 0 0 1 5.65685 5.65685v10.34315h16v16a16 16 0 0 1 -16 16h-53.74512a32 32 0 0 1 -18.59962-5.96053l-15.09714-10.78367z" fill="#ffceb6"/><g fill="#de402f"><path d="m128.00082 207.99906a8.00334 8.00334 0 0 1 -11.32-.00145l-12.68082-12.68755-12.68081 12.68756a8.00334 8.00334 0 0 1 -11.32.00145 8.00334 8.00334 0 0 1 .00006-11.31837l12.68068-12.6807h22.64014l12.68069 12.68069a8.00334 8.00334 0 0 1 .00006 11.31837z"/><rect height="35.772" rx="8" transform="matrix(.6 -.8 .8 .6 -148.081 158.445)" width="16" x="76.401" y="209.415"/><rect height="26.247" rx="8" transform="matrix(.581 -.814 .814 .581 -182.101 157.402)" width="15.999" x="53.88" y="242.504"/></g></svg>