<?xml version="1.0" encoding="utf-8"?>
<!-- Generator: Adobe Illustrator 24.0.0, SVG Export Plug-In . SVG Version: 6.00 Build 0)  -->
<svg version="1.1" id="a519a07b-146b-4858-b43d-d7595bfbc587"
	 xmlns="http://www.w3.org/2000/svg" xmlns:xlink="http://www.w3.org/1999/xlink" x="0px" y="0px" viewBox="0 0 893.7 749.5"
	 style="enable-background:new 0 0 893.7 749.5;" xml:space="preserve">
<style type="text/css">
	.st0{fill:#3F3D56;}
	.st1{fill:#FFB6B6;}
	.st2{fill:#2F2E41;}
	.st3{fill:#F0F0F0;}
	.st4{fill:#FFFFFF;}
	.st5{fill:#E4E4E4;}
	.st6{fill:#428DFC;}
	.st7{fill:#9E616A;}
	.st8{fill:#E6E6E6;}
	.st9{opacity:0.2;enable-background:new    ;}
</style>
<path class="st0" d="M581.8,741.1L414.3,439.3c-0.1-1.5-0.9-2.9-2.2-3.6c-0.7-0.4-1.6-0.6-2.4-0.6c0,0-0.1,0-0.1,0c0,0-0.1,0-0.1,0
	c-2.4-0.1-4.4,1.7-4.6,4l-177.4,302c-1.2,2.2-0.5,4.9,1.6,6.1c2.2,1.2,4.9,0.5,6.1-1.6c0,0,0,0,0,0l174.2-296.5L574,745.6
	c1.2,2.2,4,2.9,6.1,1.7C582.3,746.1,583,743.3,581.8,741.1C581.8,741.2,581.8,741.2,581.8,741.1z"/>
<polygon class="st1" points="381.9,689.4 400.8,685 393.1,610 365.1,616.4 "/>
<path class="st2" d="M396.5,653.1l-26.9,6.2l-8.6-16.8l-0.5-0.6c-3.8-4.7-5.9-10.5-6-16.6l-22.4-59.2l-1.8-0.9
	c-5.5-2.6-7.8-9.2-5.2-14.7c0.2-0.4,0.4-0.8,0.7-1.2l-2.4-6.3l-66.9,0.1l-0.1,0l-82.1-23l8.6-51.4l23.1,14.5
	c7.6-0.5,138-8.5,150,20.7c10.7,26,26.2,70.5,37.3,103.2c0.6,1.5,1.2,2.9,2.1,4.2c1.7,2.7,2.7,5.7,2.9,8.9c0.1,1.4,0.4,2.7,0.8,4.1
	c4.6,13.8-2.4,28.5-2.5,28.6L396.5,653.1z"/>
<path class="st2" d="M375.5,683.1l6.2-1.4l21.8-15.3l15.1,6.8l0,0c15.2-3.5,30.2,6,33.7,21.1l0.2,0.9L382,711.4L375.5,683.1z"/>
<path class="st3" d="M96.1,684.8c1.9-20.9,14.2-41.9,33.9-49.3c-7.2,21.7-6.4,45.3,2.1,66.5c3.3,8.2,7.9,16.9,5.3,25.3
	c-1.6,5.2-5.9,9.3-10.7,12c-4.8,2.6-10.2,4-15.5,5.3l-1,0.9C101,726.5,94.2,705.7,96.1,684.8z"/>
<path class="st4" d="M130.2,635.8c-11.2,13.4-17.8,29.9-19.1,47.2c-0.3,3.7-0.1,7.5,0.8,11.1c0.9,3.5,2.8,6.7,5.4,9.3
	c2.4,2.4,5.1,4.7,6.8,7.6c1.8,3.1,2.1,6.8,0.9,10.2c-1.3,4.2-4.1,7.7-6.9,11c-3.1,3.7-6.4,7.4-7.6,12.2c-0.1,0.6-1,0.3-0.9-0.3
	c2.1-8.3,10-13.2,13.5-20.8c1.7-3.5,2.3-7.6,0.5-11.2c-1.6-3.1-4.4-5.4-6.8-7.9c-2.6-2.5-4.5-5.5-5.6-8.9c-1-3.6-1.4-7.3-1.2-11.1
	c0.4-8.4,2.1-16.7,5.1-24.6c3.3-9,8.2-17.4,14.4-24.8C129.9,634.7,130.5,635.4,130.2,635.8L130.2,635.8z"/>
<path class="st4" d="M111.1,677.5c-6-1.2-10.1-6.6-9.9-12.7c0-0.3,0.2-0.5,0.5-0.4c0.2,0,0.4,0.2,0.4,0.5
	c-0.3,5.7,3.6,10.7,9.2,11.8C112,676.7,111.7,677.6,111.1,677.5L111.1,677.5z"/>
<path class="st4" d="M115.9,702.5c5.1-3.3,8.7-8.3,10.2-14.1c0.1-0.6,1-0.3,0.9,0.3c-1.6,6.1-5.4,11.3-10.7,14.7
	C115.8,703.6,115.4,702.8,115.9,702.5L115.9,702.5z"/>
<path class="st4" d="M119.4,651.7c2.2,0.9,4.7,0.7,6.7-0.6c0.5-0.3,0.9,0.5,0.4,0.8c-2.2,1.4-5,1.7-7.4,0.6
	c-0.2-0.1-0.4-0.3-0.3-0.6C118.9,651.8,119.1,651.7,119.4,651.7L119.4,651.7z"/>
<path class="st3" d="M191.8,670.7c-0.3,0.2-0.6,0.4-0.9,0.6c-4.1,2.9-8,6.1-11.5,9.6c-0.3,0.3-0.6,0.5-0.8,0.8
	c-8.5,8.6-15.4,18.6-20.3,29.7c-1.9,4.4-3.5,9-4.8,13.6c-1.7,6.4-3.1,13.5-6.7,18.8c-0.4,0.6-0.8,1.1-1.2,1.6l-34.3,1.1
	c-0.1,0-0.2-0.1-0.2-0.1l-1.4,0.1c0-0.2,0.1-0.5,0.1-0.7c0-0.1,0.1-0.3,0.1-0.4c0-0.1,0-0.2,0.1-0.3c0,0,0-0.1,0-0.1
	c0-0.1,0-0.2,0-0.2c0.3-1.4,0.6-2.8,0.9-4.2c0,0,0,0,0,0c2.3-10.8,5.9-21.2,10.7-31.2c0.1-0.3,0.3-0.6,0.5-0.9
	c2.2-4.4,4.8-8.6,7.7-12.6c1.6-2.2,3.3-4.3,5.1-6.3c4.7-5.2,10.2-9.5,16.2-13c12.1-6.9,26.2-9.8,39.5-6.3
	C191.1,670.6,191.4,670.6,191.8,670.7z"/>
<path class="st4" d="M191.7,671.2c-17,3.9-32.2,13.1-43.7,26.2c-2.5,2.8-4.6,5.9-6.1,9.4c-1.4,3.4-1.8,7.1-1.3,10.7
	c0.4,3.4,1.2,6.8,0.8,10.2c-0.5,3.5-2.4,6.7-5.4,8.7c-3.6,2.6-7.9,3.7-12.1,4.6c-4.7,1.1-9.6,2.1-13.4,5.2c-0.5,0.4-1-0.4-0.6-0.7
	c6.7-5.4,15.9-4.6,23.3-8.4c3.4-1.8,6.4-4.7,7.1-8.6c0.6-3.5-0.2-7-0.7-10.4c-0.6-3.5-0.3-7.1,0.9-10.5c1.4-3.5,3.3-6.7,5.7-9.6
	c5.4-6.5,11.7-12.1,18.9-16.6c8.1-5.2,17-8.9,26.4-11.1C192.2,670.1,192.3,671,191.7,671.2L191.7,671.2z"/>
<path class="st4" d="M151.5,693c-4-4.6-4.1-11.4-0.2-16.1c0.4-0.5,1.1,0.1,0.7,0.6c-3.6,4.4-3.5,10.7,0.2,15
	C152.6,692.9,151.9,693.4,151.5,693z"/>
<path class="st4" d="M140.2,715.8c6,0.5,12-1.4,16.7-5.1c0.5-0.4,1,0.4,0.6,0.7c-4.9,3.9-11.1,5.8-17.4,5.3
	C139.5,716.6,139.6,715.7,140.2,715.8L140.2,715.8z"/>
<path class="st4" d="M173.5,677.4c1.2,2.1,3.3,3.4,5.6,3.6c0.6,0,0.5,1-0.1,0.9c-2.6-0.2-4.9-1.7-6.3-3.9c-0.1-0.2-0.1-0.5,0.1-0.6
	C173.1,677.2,173.4,677.2,173.5,677.4L173.5,677.4z"/>
<path class="st3" d="M656.7,684.8c-1.9-20.9-14.2-41.9-33.9-49.3c7.2,21.7,6.4,45.3-2.1,66.5c-3.3,8.2-7.9,16.9-5.3,25.3
	c1.6,5.2,5.9,9.3,10.7,12c4.8,2.6,10.2,4,15.5,5.3l1,0.9C651.8,726.5,658.7,705.7,656.7,684.8z"/>
<path class="st4" d="M622.7,635.8c11.2,13.4,17.8,29.9,19.1,47.2c0.3,3.7,0.1,7.5-0.8,11.1c-0.9,3.5-2.8,6.7-5.4,9.3
	c-2.4,2.4-5.1,4.7-6.8,7.6c-1.8,3.1-2.1,6.8-0.9,10.2c1.3,4.2,4.1,7.7,6.9,11c3.1,3.7,6.4,7.4,7.6,12.2c0.1,0.6,1,0.3,0.9-0.3
	c-2.1-8.3-10-13.2-13.5-20.8c-1.7-3.5-2.3-7.6-0.5-11.2c1.6-3.1,4.4-5.4,6.8-7.9c2.6-2.5,4.5-5.5,5.6-8.9c1-3.6,1.4-7.3,1.2-11.1
	c-0.4-8.4-2.1-16.7-5.1-24.6c-3.3-9-8.2-17.4-14.4-24.8C622.9,634.7,622.3,635.4,622.7,635.8L622.7,635.8z"/>
<path class="st4" d="M641.7,677.5c6-1.2,10.1-6.6,9.9-12.7c0-0.3-0.2-0.5-0.5-0.4c-0.2,0-0.4,0.2-0.4,0.5c0.3,5.7-3.6,10.7-9.2,11.8
	C640.8,676.7,641.1,677.6,641.7,677.5z"/>
<path class="st4" d="M637,702.5c-5.1-3.3-8.7-8.3-10.2-14.1c-0.1-0.6-1-0.3-0.9,0.3c1.6,6.1,5.4,11.3,10.7,14.7
	C637,703.6,637.5,702.8,637,702.5L637,702.5z"/>
<path class="st4" d="M633.4,651.7c-2.2,0.9-4.7,0.7-6.7-0.6c-0.5-0.3-0.9,0.5-0.4,0.8c2.2,1.4,5,1.7,7.4,0.6
	c0.2-0.1,0.4-0.3,0.3-0.6C633.9,651.8,633.7,651.7,633.4,651.7L633.4,651.7z"/>
<path class="st3" d="M561,670.7c0.3,0.2,0.6,0.4,0.9,0.6c4.1,2.9,8,6.1,11.5,9.6c0.3,0.3,0.6,0.5,0.8,0.8
	c8.5,8.6,15.4,18.6,20.3,29.7c1.9,4.4,3.5,9,4.8,13.6c1.7,6.4,3.1,13.5,6.7,18.8c0.4,0.6,0.8,1.1,1.2,1.6l34.3,1.1
	c0.1,0,0.2-0.1,0.2-0.1l1.4,0.1c0-0.2-0.1-0.5-0.1-0.7c0-0.1-0.1-0.3-0.1-0.4c0-0.1,0-0.2-0.1-0.3c0,0,0-0.1,0-0.1
	c0-0.1,0-0.2,0-0.2c-0.3-1.4-0.6-2.8-0.9-4.2c0,0,0,0,0,0c-2.3-10.8-5.9-21.2-10.7-31.2c-0.1-0.3-0.3-0.6-0.5-0.9
	c-2.2-4.4-4.8-8.6-7.7-12.6c-1.6-2.2-3.3-4.3-5.1-6.3c-4.7-5.2-10.2-9.5-16.2-13c-12.1-6.9-26.2-9.8-39.5-6.3
	C561.7,670.6,561.4,670.6,561,670.7z"/>
<path class="st4" d="M561.1,671.2c17,3.9,32.2,13.1,43.7,26.2c2.5,2.8,4.6,5.9,6.1,9.4c1.4,3.4,1.8,7.1,1.3,10.7
	c-0.4,3.4-1.2,6.8-0.8,10.2c0.5,3.5,2.4,6.7,5.4,8.7c3.6,2.6,7.9,3.7,12.1,4.6c4.7,1.1,9.6,2.1,13.4,5.2c0.5,0.4,1-0.4,0.6-0.7
	c-6.7-5.4-15.9-4.6-23.3-8.4c-3.4-1.8-6.4-4.7-7.1-8.6c-0.6-3.5,0.2-7,0.7-10.4c0.6-3.5,0.3-7.1-0.9-10.5c-1.4-3.5-3.3-6.7-5.7-9.6
	c-5.4-6.5-11.7-12.1-18.9-16.6c-8.1-5.2-17-8.9-26.4-11.1C560.6,670.1,560.5,671,561.1,671.2L561.1,671.2z"/>
<path class="st4" d="M601.3,693c4-4.6,4.1-11.4,0.2-16.1c-0.4-0.5-1.1,0.1-0.7,0.6c3.6,4.4,3.5,10.7-0.2,15
	C600.2,692.9,601,693.4,601.3,693z"/>
<path class="st4" d="M612.6,715.8c-6,0.5-12-1.4-16.7-5.1c-0.5-0.4-1,0.4-0.6,0.7c4.9,3.9,11.1,5.8,17.4,5.3
	C613.4,716.6,613.2,715.7,612.6,715.8L612.6,715.8z"/>
<path class="st4" d="M579.3,677.4c-1.2,2.1-3.3,3.4-5.6,3.6c-0.6,0-0.5,1,0.1,0.9c2.6-0.2,4.9-1.7,6.3-3.9c0.1-0.2,0.1-0.5-0.1-0.6
	C579.7,677.2,579.4,677.2,579.3,677.4L579.3,677.4z"/>
<circle class="st0" cx="574.1" cy="283.5" r="4.5"/>
<path class="st5" d="M517.8,318.2l60.7-38.1c2.2-1.4,5.2-0.7,6.6,1.5c1.4,2.2,0.7,5.2-1.5,6.6c-0.1,0.1-0.2,0.1-0.4,0.2l-63.9,32.5
	c-0.8,0.4-1.7,0.1-2.1-0.7C516.8,319.5,517.1,318.6,517.8,318.2L517.8,318.2z"/>
<path class="st6" d="M396.1,400.2c-1-1.5-1-3.4,0.1-4.8c1-1.4,2.4-2.5,4-3.1c3.2-1.7,6.7-2.8,10.3-3.3c2.7-0.4,5.7-0.5,7.9-2.3
	c2.1-1.8,3.3-5.1,6-5.3c2.6-0.3,4.7,2.6,7.3,2.8c3.3,0.2,5.4-3.6,8.6-4.4c2.1-0.5,4.3,0.4,6.3,1.3l12,5.4l6.1,2.8
	c2.1,1,4.6,2.3,5,4.6c0.6,3.2-3,5.4-6,6.6c-21.7,8-45.5,8-67.1,0"/>
<ellipse class="st0" cx="414.1" cy="436.5" rx="157.5" ry="22.5"/>
<path class="st0" d="M625.6,576h108c5,0,9,4,9,9l0,0c0,5-4,9-9,9h-108c-5,0-9-4-9-9l0,0C616.6,580,620.6,576,625.6,576z"/>
<path class="st0" d="M786,415.5L750.3,585l9.3,43.4l17.5,81.8V747c0,0.1,0,0.1,0,0.2c0,0.8-0.2,1.6-0.4,2.4h-14.1
	c-0.3-0.8-0.4-1.6-0.4-2.4c0,0,0-0.1,0-0.2v-35.2l-15.9-74.3l-3.2-15l-6.2-29.1l-1.8-8.4v0l1.8-8.4l1.4-6.5l33.2-157.6
	c0.8-4.1,4.8-6.7,8.9-5.8C784.2,407.5,786.8,411.5,786,415.5C786,415.5,786,415.5,786,415.5L786,415.5z"/>
<path class="st0" d="M633.1,585v162c0,0.1,0,0.1,0,0.2c0,0.8-0.2,1.6-0.4,2.4h-14.1c-0.3-0.8-0.4-1.6-0.4-2.4c0,0,0-0.1,0-0.2V585
	c0-4.1,3.4-7.5,7.5-7.5S633.1,580.9,633.1,585z"/>
<path class="st0" d="M643.6,558h72c14.9,0,27,12.1,27,27l0,0l0,0h-126l0,0l0,0C616.6,570.1,628.7,558,643.6,558z"/>
<path class="st0" d="M751.6,637.5h-126c-4.1,0-7.5-3.4-7.5-7.5s3.4-7.5,7.5-7.5h126c4.1,0,7.5,3.4,7.5,7.5S755.8,637.5,751.6,637.5z
	"/>
<path class="st0" d="M292.6,594.3H165.5c-5,0-9-4-9-9v-2.7c0-5,4-9,9-9h127.1c5,0,9,4,9,9v2.7C301.6,590.2,297.6,594.3,292.6,594.3z
	"/>
<path class="st0" d="M164.2,584l-2.3,9.5l-8.4,34.7l-3.6,15l-16.9,69.6V743c0,1.5-0.4,2.9-1.3,4.2c-0.6,1-1.5,1.8-2.6,2.4h-7.3
	c-1-0.6-1.9-1.4-2.6-2.4c-0.8-1.2-1.3-2.7-1.3-4.2v-32l18.8-77.3l12.1-49.9l-41.1-195.3c-0.9-4.1,1.7-8,5.8-8.9s8,1.7,8.9,5.8
	c0,0,0,0,0,0l38,180.4l1.8,8.3l2,9.7L164.2,584z"/>
<path class="st0" d="M298.8,583.9V743c0,1.5-0.4,2.9-1.3,4.2c-0.6,1-1.5,1.8-2.6,2.4h-7.4c-1-0.6-1.9-1.4-2.6-2.4
	c-0.8-1.2-1.3-2.7-1.3-4.2V583.9c0-4.1,3.4-7.5,7.5-7.5S298.8,579.8,298.8,583.9z"/>
<path class="st0" d="M301.6,583.9H156.5l0,0v-4.1c0-14.9,12.1-27,27-27h91.1c14.9,0,27,12.1,27,27L301.6,583.9L301.6,583.9z"/>
<path class="st0" d="M291.2,643.2H146.2c-4.1,0-7.5-3.4-7.5-7.5s3.4-7.5,7.5-7.5h145.1c4.1,0,7.5,3.4,7.5,7.5
	S295.4,643.2,291.2,643.2z"/>
<polygon class="st7" points="477.7,708.7 462,701.1 483.6,635.2 506.9,646.3 "/>
<polygon class="st7" points="584.5,702.7 567.6,706.9 543,642 568.1,635.8 "/>
<path class="st7" d="M519.6,422.3c4.7,7.6,14.6,10.1,22.3,5.6c0.7-0.5,1.5-1,2.1-1.5l49.8,28.6l-2.2-29.4l-47-22.7
	c-5.3-5.3-13.4-6.3-19.9-2.6c-7.5,4.5-9.9,14.2-5.4,21.6C519.4,422,519.5,422.2,519.6,422.3z"/>
<path class="st8" d="M572.4,444.2l8.8,5.4l39.6,24.1c10.9,6.8,25.3,3.5,32.1-7.4c0,0,0,0,0,0c2.9-4.8,4-10.6,2.9-16.1l-17.6-87.9
	c-2.5-13.2-15.2-21.9-28.5-19.4c-1.2,0.2-2.4,0.5-3.5,0.9c-11.6,4.1-18,16.4-14.6,28.2l18.4,62.3l-28.2-13.1L572.4,444.2z"/>
<path class="st2" d="M551.5,684.5l-27.1-54.4l0-0.1l2.7-99.8c0-0.9,0.1-1.8,0.2-2.7c1-8.1,5.1-15.4,11.5-20.4c6.2-4.8,14-7,21.8-5.9
	l77.6,10l2.7-11l0.5-0.2l74.3-27.2l0.4,0.7c9.7,15.8,16.5,47.5,18.4,56.8l0,0.1c0,0.2,0.1,0.3,0.1,0.4c3.8,15.9-12,42.2-27.7,46.2
	c-33.2,8.5-62.8,1.9-97.2-5.8c-12.3-2.7-25-5.6-39.1-8l0.4,8.3c0.3,6.4,1.7,12.6,3.9,18.6c2.5,7.3,4.5,13.1,0.3,25.2l-2,5.8
	c2.1,5.9,1.4,12.4-2,17.6l-0.4,0.6l17.9,45.3L551.5,684.5z"/>
<path class="st2" d="M507,660.5l-32.3-3l11.5-36.6c2.4-23.9,8.3-47.4,17.7-69.5l15.6-37c0-0.8,0.1-1.7,0.2-2.5
	c1-8.1,5.1-15.4,11.5-20.4c6.2-4.8,14-7,21.8-5.9l77.4,10l3.4-28.3l74.3-9.9l0.3,0.6c13,21.1,21.2,37.7,26,52.1
	c0.2,0.7,0.4,1.5,0.6,2.2c3.9,16-5.8,32.2-21.4,36.2c-39.9,10.2-88,9.9-151.1-0.9L531.9,620c-2.9,6.9-6.5,13.6-10.8,19.8L507,660.5z
	"/>
<ellipse class="st7" cx="619.8" cy="255" rx="37.5" ry="38.3"/>
<path class="st5" d="M630.6,496.8l-5.4-19.3l-1.3-9.5l-7.7,0.3l-15.2-35l-5.9-9.2c-1.2-1.3-2.3-2.5-3.3-3.6
	c-6.1-6.9-11.1-14.9-14.6-23.4c-2.5-6.2-3.9-12.7-4.3-19.3c-1.1-19.6,7.1-40.2,25.2-63.3c-0.3-0.8-0.5-1.7-0.6-2.5
	c-0.7-5.8,3.5-11.1,9.3-11.8l17.4-2c2.7-0.3,5.5,0.5,7.6,2.2c2.2,1.8,3.7,4.4,3.9,7.3c0.2,2.2-0.2,4.4-1.2,6.3
	c18.1,2.3,33.2,15,38.6,32.5c10.4,19.5,18.7,40,24.8,61.2c1.2,4.2,0.7,8.4,0.1,12.6c-0.5,3.8-1,7.8-0.1,11.7c0.8,4,2.9,8,5,12.3
	c2.4,4.9,5,9.9,5.7,15.1l0,0.4L630.6,496.8z"/>
<path class="st9" d="M577.8,396.7c3.5,8.5,8.4,16.4,14.5,23.3c1,1.2,2.1,2.5,3.3,3.7l5.9,9.3c21.8-16.4,39.5-80.9,39.5-80.9
	l-24.7-4.8L577.8,396.7z"/>
<path class="st7" d="M562.8,296.9c4.5,7.7,2,17.6-5.6,22.3c-0.7,0.4-1.5,0.8-2.3,1.2l1.7,57.4l-24.9-15.7L534,310
	c-2.2-7.1,0.7-14.8,7.1-18.8c7.4-4.5,17.1-2.1,21.6,5.3C562.7,296.7,562.8,296.8,562.8,296.9z"/>
<path class="st8" d="M558.9,356.1l-27.4,3.9l1.2,56.6c0.1,8.2,4.5,15.8,11.6,20l0,0c8.7,5.1,19.8,3.9,27.1-3.1l64.6-62.1
	c9.4-8.9,10.2-23.7,1.8-33.6l0,0c-8.3-9.8-22.9-11-32.7-2.8c-0.2,0.2-0.4,0.3-0.5,0.5c-0.6,0.6-1.2,1.2-1.8,1.8l-42.6,49.1
	L558.9,356.1z"/>
<polygon class="st1" points="330.1,725.6 349.5,725.6 358.8,650.7 330.1,650.7 "/>
<ellipse transform="matrix(0.1602 -0.9871 0.9871 0.1602 -67.5897 431.963)" class="st1" cx="220.1" cy="255.7" rx="38.7" ry="38.7"/>
<path class="st2" d="M355.9,702.5h-27.5l-7-9.4l-1.9-8.9l-1.6-1.6c-4.6-4.4-5.5-11.3-2.3-16.8l-19.9-93c-5.2-0.5-64.1-5.7-105-13
	c-10.5-1.9-18.6-6.9-24.3-15.1c-13.9-20.1-7.9-52.7-7.9-53l0.1-0.4l0.4,0l95.6-10.7l0.1,0.1c3.2,1.5,77.8,36.9,90,49.1
	c5.5,5.5,17.8,38.2,20.5,73c0.5,6.2-1.3,12.6-3,18.7c-1.6,5.7-3.3,11.7-2.9,17.3c0.5,8.7,1,17.7,1.4,27c0.1,1.5,1.2,3,2.3,4.5
	c1.1,1.5,2.2,3,2.3,4.5c0.7,14.8-9,27.2-9.1,27.3L355.9,702.5z"/>
<path class="st1" d="M362.1,358.9c-7.9-2.1-16,2.5-18.1,10.3c-0.2,0.8-0.4,1.7-0.5,2.6l-32.2,10.1l1.3,21.1l45.3-14.8
	c8.2,0.2,15-6.3,15.2-14.5C373.3,366.8,368.7,360.7,362.1,358.9L362.1,358.9z"/>
<path class="st6" d="M341.1,393.8l-24.1,9.1l-0.6,1.2c-3.1,6-10.4,8.3-16.4,5.2l0,0L246,429.8c0,0-24.2-24.2-41.3-45.7l5.9-36
	c1.4-8.4,4.2-16.4,8.5-23.7c35.3,7.7,55.5,57,55.5,57l63.6-12.1L341.1,393.8z"/>
<path class="st2" d="M214.6,292.4c-9.7,2.6-20.4-0.9-28-7.5s-12.3-16-15-25.6c-2-7.1-2.9-14.9,0.2-21.6s11.6-11.1,18.2-7.8
	c-4-4.7-2-12.5,2.7-16.5s11.2-5.2,17.4-5.8c9-0.9,18.2-1,26.7,1.9s16.3,9.2,18.9,17.8c5.6,2.6,12.3,1.1,16.2-3.7
	c1,5.5-1.8,10.9-6.8,13.3l13.1-4.2c2.2,4.8-1.7,10.6-6.7,12.2s-10.5-0.1-15.2-2.3s-9.4-5-14.6-5.8s-11.3,0.8-13.7,5.5
	c-1.3,2.4-1.3,5.3-2.1,8s-2.6,5.4-5.3,5.6c-1.7,0.1-3.4-0.8-5.2-0.6c-2.1,0.2-3.8,2.2-4.4,4.3c-0.4,2.1-0.4,4.3,0,6.4l3.3,25.3"/>
<path class="st6" d="M166.5,549.5C166.5,549.5,166.5,549.5,166.5,549.5l-0.3-0.1l-0.1-0.3c-1.1-3.7-2.5-7.6-3.9-11.3
	c-2-5.1-3.7-10.4-5.1-15.7c-1.1-5.1-1.8-10.3-2.3-15.5c-0.4-3.8-0.8-7.7-1.5-11.5c-0.3-1.7,0.8-3.3,1.9-4.9c1-1.5,2-2.8,1.8-4.1
	c-0.2-1.3-1.7-2.8-3.1-4.2c-1.6-1.5-3.2-3.1-3.4-4.8c-3.1-22.9-4.6-46-4.3-69.2c0.3-32,1.8-53.8,4.3-64.8
	c6.8-29.6,38.2-35,43.2-35.7c2.1-5.6,8.4-8.5,14-6.4c0.2,0.1,0.5,0.2,0.7,0.3l22.3,10.2c9.2,4.2,16.2,12,19.3,21.6l3.3,10.1
	l1.7,67.9l-9.2,47.8l18,27C168,538.7,166.9,549.5,166.5,549.5z"/>
<path class="st2" d="M319.7,718l6.3,0l24.6-10l13.2,10h0c15.5,0,28.1,12.6,28.1,28.1v0.9l-72.3,0L319.7,718z"/>
<path class="st1" d="M370.2,407.4c-7-4.1-16.1-1.8-20.2,5.3c-0.4,0.7-0.8,1.5-1.1,2.4l-33.7,1.3l-4.5,15.7l47.9,2.5
	c7.9,2.3,16.1-2.2,18.4-10C378.9,417.9,376.1,410.8,370.2,407.4z"/>
<path class="st6" d="M342.5,436.1l-34.6-0.4l-4.4-0.1l-70.4-0.9c0,0-19.1-18.2-35.8-37l2.3-16.9c2.3-16.6,10.5-31.8,23.1-42.7
	c23.9,15.9,37.7,47.5,37.7,47.5l23.2,10.4l0,0c16.3,0.7,32.2,5.4,46.4,13.6l7.6,4.4L342.5,436.1z"/>
<path class="st2" d="M596.9,734.6l-11.5,2.8l-4.7-10.4l-2.6,12.2l-30.6,7.5c-3.8,0.9-7.6-1.4-8.6-5.2c-0.6-2.3,0-4.6,1.6-6.4
	l20.2-22.9l-2.7-11l26-4.8L596.9,734.6z"/>
<path class="st2" d="M474.9,738.2l-11-4.5l2.3-11.2l-9.3,8.3L427.8,719c-3.6-1.5-5.4-5.6-3.9-9.2c0.9-2.2,2.8-3.7,5-4.2l29.8-6.6
	l4.3-10.5l23.9,11.5L474.9,738.2z"/>
<path class="st5" d="M436.6,432.5h-9c-20.1,0-36.5-16.4-36.5-36.5v-0.5h82v0.5C473.1,416.1,456.8,432.5,436.6,432.5z"/>
<path class="st0" d="M427.6,382.5c0,2.5-4.5,4.5-4.5,4.5s-4.5-2-4.5-4.5s4.5-4.5,4.5-4.5S427.6,380,427.6,382.5z"/>
<path class="st0" d="M454.6,382.5c0,2.5-4.5,4.5-4.5,4.5s-4.5-2-4.5-4.5s4.5-4.5,4.5-4.5S454.6,380,454.6,382.5z"/>
<path class="st0" d="M436.6,391.5c0,2.5-4.5,4.5-4.5,4.5s-4.5-2-4.5-4.5s4.5-4.5,4.5-4.5S436.6,389,436.6,391.5z"/>
<circle class="st0" cx="405.1" cy="368.5" r="4.5"/>
<path class="st5" d="M339.7,358.8l71,9.8c2.6,0.4,4.5,2.8,4.1,5.4s-2.8,4.5-5.4,4.1c-0.1,0-0.3,0-0.4-0.1l-69.8-16.2
	c-0.8-0.2-1.3-1-1.2-1.9C338.1,359.2,338.9,358.7,339.7,358.8L339.7,358.8z"/>
<path class="st3" d="M425.9,135.2V0h-9v135.2c-25.5,2.3-45,23.7-45,49.3V198h31.5c0,9.9,8.1,18,18,18s18-8.1,18-18h31.5v-13.5
	C470.9,158.9,451.4,137.5,425.9,135.2z"/>
<path class="st3" d="M541.8,101.4V0H535v101.4c-19.1,1.7-33.7,17.8-33.8,37v10.1h23.6c0,7.5,6,13.5,13.5,13.5s13.5-6,13.5-13.5h23.6
	v-10.1C575.5,119.2,560.9,103.2,541.8,101.4z"/>
<path class="st3" d="M313.8,101.4V0H307v101.4c-19.1,1.7-33.7,17.8-33.8,37v10.1h23.6c0,7.5,6,13.5,13.5,13.5s13.5-6,13.5-13.5h23.6
	v-10.1C347.5,119.2,332.9,103.2,313.8,101.4z"/>
<path class="st2" d="M720,238.4c-6.4-7.4-9.4-17.3-14.5-25.7c-5.1-8.4-14-16-23.3-14c-6.5,1.4-11.4,7-14,13.4
	c-2.5,6.3-3,13.3-3.4,20.2c0.2-14.1-9.1-27.8-21.9-32.3c-12.8-4.5-28.1,0.5-36.1,11.8c-7.3-6.7-18.4-7-25.9-0.5
	c-7.2,6.4-8.8,18.7-3.5,26.8s16.7,11.2,25.1,6.7l3,2.7c-1.7,5.8,1.6,12.8,7,15c4.4,1.8,10.7,1.5,12.3,6.1c1.2,3.2-1,6.7-3.3,9.2
	c-2.3,2.5-5,5.1-5.3,8.5c-0.4,5.2,5,8.8,9.8,9.9c11.8,2.6,24.8-2.8,31.6-13.2c0.1-0.2,0.3-0.4,0.4-0.6c7.7-9.8,11-22.4,9.1-34.8
	c-0.4-2.4,0-4.2,1.7-4.8c7.2-2.5,27.2,2.7,33.3,7.4c6.1,4.7,10.9,10.8,16.8,15.8c5.8,5,13.3,8.8,20.7,7.4c5.9-1.1,11-5.4,14.4-10.6
	c3.4-5.2,5.4-11.3,7.1-17.3C748.1,253.3,730.1,250.1,720,238.4z"/>
</svg>
